<svg width="96" height="59" viewBox="0 0 96 59" fill="none" xmlns="http://www.w3.org/2000/svg">
<mask id="mask0_509_9" style="mask-type:luminance" maskUnits="userSpaceOnUse" x="-1" y="-2" width="97" height="61">
<path d="M-0.0805054 58.436H96V-1.00757H-0.0805054V58.436Z" fill="white"/>
</mask>
<g mask="url(#mask0_509_9)">
<path fill-rule="evenodd" clip-rule="evenodd" d="M18.2252 57.0941C17.7414 44.4929 16.7297 21.5196 23.4878 11.2735C30.4565 0.709869 41.6306 -0.301577 51.0444 0.0591143V28.8608V44.3104C51.0444 48.0616 54.7336 50.9645 58.8536 51.3977C68.5557 52.4176 73.2237 41.0779 66.7574 34.6694C63.7069 31.6463 58.5206 30.1951 53.9644 29.4072C57.8362 28.4146 69.3721 28.7322 73.8177 37.2757C76.0357 41.5383 75.2357 48.3167 71.6897 52.2431C68.5289 55.7438 63.9152 57.4772 58.2485 57.2543C50.7677 56.9604 44.2076 52.9816 44.2076 43.8181V6.60839C28.9572 7.97317 26.1082 18.2904 24.4534 30.7336C23.3585 38.9679 23.823 50.0738 23.7808 57.0941H18.2252Z" fill="black"/>
<path fill-rule="evenodd" clip-rule="evenodd" d="M39.7425 22.9911C23.5282 21.3921 9.3233 27.7602 0 39.3531C12.6454 30.3742 25.5201 27.7818 39.7425 28.6516V22.9911Z" fill="#FBC375"/>
<path fill-rule="evenodd" clip-rule="evenodd" d="M52.5248 0V6.71491C53.1465 6.72035 62.6614 5.5605 68.7162 9.70543C74.4287 13.6162 74.7677 21.4225 72.6297 27.9748C86.6907 35.2063 70.7777 61.0651 96.3407 56.7446C77.3267 54.4019 90.4547 30.3582 75.1187 27.2912C78.4267 19.6662 79.1717 11.008 72.8547 5.33199C66.9105 -0.0101777 57.8732 0.174401 52.5248 0Z" fill="#FBC375"/>
</g>
</svg>
