<svg width="170" height="133" viewBox="0 0 170 133" fill="none" xmlns="http://www.w3.org/2000/svg">
<mask id="mask0_507_11" style="mask-type:luminance" maskUnits="userSpaceOnUse" x="-1" y="0" width="171" height="133">
<path d="M-0.0805054 132.382H169.998V0.0981084H-0.0805054V132.382Z" fill="white"/>
</mask>
<g mask="url(#mask0_507_11)">
<path fill-rule="evenodd" clip-rule="evenodd" d="M48.2895 95.2505C47.8057 82.7433 46.794 59.9414 53.5521 49.7718C60.5208 39.287 71.6949 38.2831 81.1087 38.6411V67.2279V82.5622C81.1087 86.2854 84.7979 89.1666 88.9179 89.5966C98.62 90.6089 103.288 79.3538 96.8217 72.9931C93.7712 69.9926 88.5849 68.5522 84.0287 67.7702C87.9005 66.785 99.4364 67.1002 103.882 75.5799C106.1 79.8107 105.3 86.5386 101.754 90.4357C98.5932 93.9102 93.9795 95.6307 88.3128 95.4095C80.832 95.1178 74.2719 91.1686 74.2719 82.0735V45.1415C59.0215 46.4961 56.1725 56.7363 54.5177 69.0867C53.4228 77.2595 53.8873 88.2825 53.8451 95.2505H48.2895Z" fill="white"/>
<path fill-rule="evenodd" clip-rule="evenodd" d="M69.8068 61.4022C53.5925 59.8152 39.3876 66.1357 30.0643 77.6421C42.7097 68.7302 55.5844 66.1572 69.8068 67.0205V61.4022Z" fill="#FBC375"/>
<path fill-rule="evenodd" clip-rule="evenodd" d="M82.5891 38.5825V45.2473C83.2108 45.2527 92.7257 44.1015 98.7805 48.2155C104.493 52.0971 104.832 59.8451 102.694 66.3485C116.755 73.5261 100.842 99.1919 126.405 94.9036C107.391 92.5784 120.519 68.7141 105.183 65.67C108.491 58.1019 109.236 49.5084 102.919 43.8747C96.9748 38.5724 87.9375 38.7556 82.5891 38.5825Z" fill="#FBC375"/>
</g>
</svg>
